<svg width="33" height="32" viewBox="0 0 33 32" fill="none" xmlns="http://www.w3.org/2000/svg">
<g clip-path="url(#clip0_497_456)">
<path d="M16.5 32C25.3366 32 32.5 24.8366 32.5 16C32.5 7.16344 25.3366 0 16.5 0C7.66344 0 0.5 7.16344 0.5 16C0.5 24.8366 7.66344 32 16.5 32Z" fill="#0084FF"/>
<path d="M26.5 15.6235C26.5 20.7381 22.0218 24.8835 16.5 24.8835C15.5306 24.8842 14.5655 24.7539 13.6309 24.4963L10.2255 26.3635V22.8326C7.95455 21.1363 6.5 18.5453 6.5 15.6235C6.5 10.509 10.9782 6.36353 16.5 6.36353C22.0218 6.36353 26.5 10.5108 26.5 15.6235Z" fill="white"/>
<path d="M22.96 13.0308L17.4927 18.8308L14.9472 16.1162L9.97815 18.8326L15.4454 13.0308L18.0545 15.7453L22.96 13.0308Z" fill="#2196F3"/>
</g>
<defs>
<clipPath id="clip0_497_456">
<rect width="32" height="32" fill="white" transform="translate(0.5)"/>
</clipPath>
</defs>
</svg>
