<svg width="33" height="32" viewBox="0 0 33 32" fill="none" xmlns="http://www.w3.org/2000/svg">
<g clip-path="url(#clip0_497_451)">
<rect x="0.5" width="32" height="32" rx="16" fill="#2854AB"/>
<path d="M14.7999 16.9183C14.7441 16.9183 13.5731 16.9186 13.033 16.9181C12.7549 16.9179 12.6557 16.818 12.6557 16.5382C12.6554 15.8194 12.6552 15.1007 12.6557 14.3819C12.6559 14.1057 12.7608 14.0002 13.0353 14.0001C13.5754 13.9997 14.74 13.9999 14.7999 13.9999C14.7999 13.9506 14.7997 12.913 14.7999 12.4351C14.8003 11.7286 14.9263 11.0523 15.2852 10.4331C15.6527 9.79936 16.1875 9.36523 16.8728 9.1142C17.3117 8.95331 17.7674 8.88914 18.2332 8.88878C18.8159 8.88843 19.3987 8.88896 19.9816 8.89003C20.2321 8.89038 20.3432 9.00114 20.3437 9.2534C20.3448 9.92949 20.3448 10.6056 20.3437 11.2815C20.3434 11.5364 20.2369 11.6388 19.9807 11.6417C19.503 11.6468 19.025 11.6436 18.5478 11.6628C18.0659 11.6628 17.8124 11.8982 17.8124 12.397C17.8008 12.9247 17.8076 13.4529 17.8076 13.9997C17.8527 13.9997 19.2243 13.9995 19.8653 13.9997C20.1565 13.9997 20.2561 14.0998 20.2561 14.3926C20.2561 15.1074 20.2559 15.8225 20.2554 16.5373C20.2552 16.8258 20.1617 16.9179 19.8687 16.9181C19.2276 16.9185 17.8614 16.9183 17.8017 16.9183V22.7041C17.8017 23.0125 17.7046 23.1108 17.4003 23.1108C16.6582 23.1108 15.916 23.111 15.174 23.1108C14.905 23.1108 14.8001 23.0063 14.8001 22.7373C14.7999 20.853 14.7999 16.9844 14.7999 16.9183Z" fill="white"/>
</g>
<defs>
<clipPath id="clip0_497_451">
<rect width="32" height="32" fill="white" transform="translate(0.5)"/>
</clipPath>
</defs>
</svg>
